<svg width="620" height="620" fill="none" xmlns="http://www.w3.org/2000/svg"><circle cx="310" cy="310" r="309.5" stroke="#399" stroke-opacity=".9" stroke-dasharray="2 5"/><circle cx="310" cy="310" r="304.5" stroke="#399" stroke-opacity=".88" stroke-dasharray="2 5"/><circle cx="310" cy="310" r="299.5" stroke="#399" stroke-opacity=".86" stroke-dasharray="2 5"/><circle cx="310" cy="310" r="294.5" stroke="#399" stroke-opacity=".84" stroke-dasharray="2 5"/><circle cx="310" cy="310" r="289.5" stroke="#399" stroke-opacity=".82" stroke-dasharray="2 5"/><circle cx="310" cy="310" r="283.5" stroke="#399" stroke-opacity=".8" stroke-dasharray="2 5"/><circle cx="310" cy="310" r="278.5" stroke="#399" stroke-opacity=".75" stroke-dasharray="2 5"/><circle cx="310" cy="310" r="273.5" stroke="#399" stroke-opacity=".7" stroke-dasharray="2 5"/><circle cx="310" cy="310" r="268.5" stroke="#399" stroke-opacity=".65" stroke-dasharray="2 5"/><circle cx="310" cy="310" r="263.5" stroke="#399" stroke-opacity=".6" stroke-dasharray="2 5"/><circle cx="310" cy="310" r="258.5" stroke="#399" stroke-opacity=".55" stroke-dasharray="2 5"/><circle cx="310" cy="310" r="258.5" stroke="#399" stroke-opacity=".5" stroke-dasharray="2 5"/><circle cx="310" cy="310" r="253.5" stroke="#399" stroke-opacity=".45" stroke-dasharray="2 5"/><circle cx="310" cy="310" r="248.5" stroke="#399" stroke-opacity=".4" stroke-dasharray="2 5"/><circle cx="310" cy="310" r="242.5" stroke="#399" stroke-opacity=".35" stroke-dasharray="2 5"/><circle cx="310" cy="310" r="237.5" stroke="#399" stroke-opacity=".3" stroke-dasharray="2 5"/><circle cx="310" cy="310" r="232.5" stroke="#399" stroke-opacity=".25" stroke-dasharray="2 5"/><circle cx="310" cy="310" r="227.5" stroke="#399" stroke-opacity=".2" stroke-dasharray="2 5"/><circle cx="310" cy="310" r="222.5" stroke="#399" stroke-opacity=".15" stroke-dasharray="2 5"/><circle cx="310" cy="310" r="217.5" stroke="#399" stroke-opacity=".1" stroke-dasharray="2 5"/></svg>
