<svg id="svgQrWrapper" viewBox="0 0 300 300" xmlns="http://www.w3.org/2000/svg" xmlns:xlink="http://www.w3.org/1999/xlink" style="width: 100%; height: 100%; background-color: rgb(255, 255, 255);"><svg><g transform="translate(9, 9)scale(0.95)" fill="none"><svg width="300" height="300"><style>.background-color{ fill: #fff; }.dot-color{ fill: #000000; }.corners-square-color-0-0{ fill: #000000; }.corners-dot-color-0-0{ fill: #000000; }.corners-square-color-1-0{ fill: #000000; }.corners-dot-color-1-0{ fill: #000000; }.corners-square-color-0-1{ fill: #000000; }.corners-dot-color-0-1{ fill: #000000; }</style><defs/><g class="dot-color"><path d="M 5 85v 10h 5a 5 5, 0, 0, 0, 0 -10" transform="rotate(180,10,90)"/><circle cx="10" cy="110" r="5" transform="rotate(0,10,110)"/><path d="M 5 155v 10h 5a 5 5, 0, 0, 0, 0 -10" transform="rotate(180,10,160)"/><path d="M 5 185v 10h 5a 5 5, 0, 0, 0, 0 -10" transform="rotate(-90,10,190)"/><path d="M 5 195v 10h 10v -5a 5 5, 0, 0, 0, -5 -5" transform="rotate(180,10,200)"/><path d="M 15 85v 10h 5a 5 5, 0, 0, 0, 0 -10" transform="rotate(0,20,90)"/><path d="M 15 115v 10h 10v -5a 5 5, 0, 0, 0, -5 -5" transform="rotate(-90,20,120)"/><path d="M 15 125v 10h 10v -5a 5 5, 0, 0, 0, -5 -5" transform="rotate(180,20,130)"/><rect x="15" y="155" width="10" height="10" transform="rotate(0,20,160)"/><rect x="15" y="195" width="10" height="10" transform="rotate(0,20,200)"/><path d="M 25 95v 10h 5a 5 5, 0, 0, 0, 0 -10" transform="rotate(180,30,100)"/><rect x="25" y="115" width="10" height="10" transform="rotate(0,30,120)"/><rect x="25" y="125" width="10" height="10" transform="rotate(0,30,130)"/><rect x="25" y="155" width="10" height="10" transform="rotate(0,30,160)"/><rect x="25" y="195" width="10" height="10" transform="rotate(0,30,200)"/><path d="M 25 205v 10h 10v -5a 5 5, 0, 0, 0, -5 -5" transform="rotate(180,30,210)"/><path d="M 35 95v 10h 5a 5 5, 0, 0, 0, 0 -10" transform="rotate(0,40,100)"/><path d="M 35 115v 10h 10v -5a 5 5, 0, 0, 0, -5 -5" transform="rotate(0,40,120)"/><path d="M 35 125v 10h 10v -5a 5 5, 0, 0, 0, -5 -5" transform="rotate(90,40,130)"/><path d="M 35 145v 10h 10v -5a 5 5, 0, 0, 0, -5 -5" transform="rotate(-90,40,150)"/><rect x="35" y="155" width="10" height="10" transform="rotate(0,40,160)"/><circle cx="40" cy="180" r="5" transform="rotate(0,40,180)"/><rect x="35" y="195" width="10" height="10" transform="rotate(0,40,200)"/><path d="M 35 205v 10h 10v -5a 5 5, 0, 0, 0, -5 -5" transform="rotate(90,40,210)"/><circle cx="50" cy="110" r="5" transform="rotate(0,50,110)"/><path d="M 45 135v 10h 5a 5 5, 0, 0, 0, 0 -10" transform="rotate(-90,50,140)"/><rect x="45" y="145" width="10" height="10" transform="rotate(0,50,150)"/><rect x="45" y="155" width="10" height="10" transform="rotate(0,50,160)"/><path d="M 45 165v 10h 10v -5a 5 5, 0, 0, 0, -5 -5" transform="rotate(180,50,170)"/><path d="M 45 195v 10h 5a 5 5, 0, 0, 0, 0 -10" transform="rotate(0,50,200)"/><path d="M 55 125v 10h 5a 5 5, 0, 0, 0, 0 -10" transform="rotate(180,60,130)"/><rect x="55" y="145" width="10" height="10" transform="rotate(0,60,150)"/><rect x="55" y="165" width="10" height="10" transform="rotate(0,60,170)"/><path d="M 55 185v 10h 5a 5 5, 0, 0, 0, 0 -10" transform="rotate(180,60,190)"/><path d="M 55 205v 10h 5a 5 5, 0, 0, 0, 0 -10" transform="rotate(180,60,210)"/><circle cx="70" cy="90" r="5" transform="rotate(0,70,90)"/><circle cx="70" cy="110" r="5" transform="rotate(0,70,110)"/><path d="M 65 125v 10h 5a 5 5, 0, 0, 0, 0 -10" transform="rotate(0,70,130)"/><path d="M 65 145v 10h 5a 5 5, 0, 0, 0, 0 -10" transform="rotate(0,70,150)"/><rect x="65" y="165" width="10" height="10" transform="rotate(0,70,170)"/><path d="M 65 185v 10h 5a 5 5, 0, 0, 0, 0 -10" transform="rotate(0,70,190)"/><rect x="65" y="205" width="10" height="10" transform="rotate(0,70,210)"/><circle cx="80" cy="120" r="5" transform="rotate(0,80,120)"/><path d="M 75 135v 10h 5a 5 5, 0, 0, 0, 0 -10" transform="rotate(180,80,140)"/><path d="M 75 155v 10h 10v -5a 5 5, 0, 0, 0, -5 -5" transform="rotate(-90,80,160)"/><rect x="75" y="165" width="10" height="10" transform="rotate(0,80,170)"/><path d="M 75 205v 10h 5a 5 5, 0, 0, 0, 0 -10" transform="rotate(0,80,210)"/><circle cx="90" cy="20" r="5" transform="rotate(0,90,20)"/><path d="M 85 65v 10h 5a 5 5, 0, 0, 0, 0 -10" transform="rotate(-90,90,70)"/><rect x="85" y="75" width="10" height="10" transform="rotate(0,90,80)"/><rect x="85" y="85" width="10" height="10" transform="rotate(0,90,90)"/><path d="M 85 95v 10h 10v -5a 5 5, 0, 0, 0, -5 -5" transform="rotate(180,90,100)"/><path d="M 85 135v 10h 5a 5 5, 0, 0, 0, 0 -10" transform="rotate(0,90,140)"/><rect x="85" y="155" width="10" height="10" transform="rotate(0,90,160)"/><path d="M 85 165v 10h 10v -5a 5 5, 0, 0, 0, -5 -5" transform="rotate(90,90,170)"/><circle cx="90" cy="190" r="5" transform="rotate(0,90,190)"/><path d="M 85 215v 10h 5a 5 5, 0, 0, 0, 0 -10" transform="rotate(180,90,220)"/><path d="M 85 275v 10h 10v -5a 5 5, 0, 0, 0, -5 -5" transform="rotate(-90,90,280)"/><path d="M 85 285v 10h 5a 5 5, 0, 0, 0, 0 -10" transform="rotate(90,90,290)"/><path d="M 95 35v 10h 5a 5 5, 0, 0, 0, 0 -10" transform="rotate(180,100,40)"/><rect x="95" y="75" width="10" height="10" transform="rotate(0,100,80)"/><rect x="95" y="85" width="10" height="10" transform="rotate(0,100,90)"/><rect x="95" y="95" width="10" height="10" transform="rotate(0,100,100)"/><rect x="95" y="105" width="10" height="10" transform="rotate(0,100,110)"/><path d="M 95 115v 10h 10v -5a 5 5, 0, 0, 0, -5 -5" transform="rotate(180,100,120)"/><path d="M 95 155v 10h 5a 5 5, 0, 0, 0, 0 -10" transform="rotate(0,100,160)"/><path d="M 95 205v 10h 5a 5 5, 0, 0, 0, 0 -10" transform="rotate(-90,100,210)"/><rect x="95" y="215" width="10" height="10" transform="rotate(0,100,220)"/><path d="M 95 245v 10h 5a 5 5, 0, 0, 0, 0 -10" transform="rotate(-90,100,250)"/><path d="M 95 255v 10h 10v -5a 5 5, 0, 0, 0, -5 -5" transform="rotate(180,100,260)"/><path d="M 95 275v 10h 5a 5 5, 0, 0, 0, 0 -10" transform="rotate(0,100,280)"/><path d="M 105 15v 10h 5a 5 5, 0, 0, 0, 0 -10" transform="rotate(180,110,20)"/><rect x="105" y="35" width="10" height="10" transform="rotate(0,110,40)"/><path d="M 105 55v 10h 5a 5 5, 0, 0, 0, 0 -10" transform="rotate(-90,110,60)"/><rect x="105" y="65" width="10" height="10" transform="rotate(0,110,70)"/><rect x="105" y="75" width="10" height="10" transform="rotate(0,110,80)"/><rect x="105" y="85" width="10" height="10" transform="rotate(0,110,90)"/><rect x="105" y="95" width="10" height="10" transform="rotate(0,110,100)"/><rect x="105" y="105" width="10" height="10" transform="rotate(0,110,110)"/><path d="M 105 115v 10h 10v -5a 5 5, 0, 0, 0, -5 -5" transform="rotate(90,110,120)"/><path d="M 105 135v 10h 5a 5 5, 0, 0, 0, 0 -10" transform="rotate(-90,110,140)"/><path d="M 105 145v 10h 5a 5 5, 0, 0, 0, 0 -10" transform="rotate(90,110,150)"/><circle cx="110" cy="190" r="5" transform="rotate(0,110,190)"/><path d="M 105 215v 10h 10v -5a 5 5, 0, 0, 0, -5 -5" transform="rotate(0,110,220)"/><path d="M 105 225v 10h 10v -5a 5 5, 0, 0, 0, -5 -5" transform="rotate(180,110,230)"/><rect x="105" y="255" width="10" height="10" transform="rotate(0,110,260)"/><path d="M 105 265v 10h 5a 5 5, 0, 0, 0, 0 -10" transform="rotate(90,110,270)"/><path d="M 115 5v 10h 5a 5 5, 0, 0, 0, 0 -10" transform="rotate(-90,120,10)"/><path d="M 115 15v 10h 10v -5a 5 5, 0, 0, 0, -5 -5" transform="rotate(90,120,20)"/><rect x="115" y="35" width="10" height="10" transform="rotate(0,120,40)"/><rect x="115" y="105" width="10" height="10" transform="rotate(0,120,110)"/><path d="M 115 195v 10h 5a 5 5, 0, 0, 0, 0 -10" transform="rotate(180,120,200)"/><rect x="115" y="225" width="10" height="10" transform="rotate(0,120,230)"/><rect x="115" y="235" width="10" height="10" transform="rotate(0,120,240)"/><rect x="115" y="245" width="10" height="10" transform="rotate(0,120,250)"/><rect x="115" y="255" width="10" height="10" transform="rotate(0,120,260)"/><path d="M 125 35v 10h 5a 5 5, 0, 0, 0, 0 -10" transform="rotate(0,130,40)"/><path d="M 125 55v 10h 10v -5a 5 5, 0, 0, 0, -5 -5" transform="rotate(-90,130,60)"/><rect x="125" y="65" width="10" height="10" transform="rotate(0,130,70)"/><rect x="125" y="75" width="10" height="10" transform="rotate(0,130,80)"/><rect x="125" y="85" width="10" height="10" transform="rotate(0,130,90)"/><rect x="125" y="95" width="10" height="10" transform="rotate(0,130,100)"/><path d="M 125 105v 10h 10v -5a 5 5, 0, 0, 0, -5 -5" transform="rotate(90,130,110)"/><rect x="125" y="195" width="10" height="10" transform="rotate(0,130,200)"/><rect x="125" y="205" width="10" height="10" transform="rotate(0,130,210)"/><rect x="125" y="215" width="10" height="10" transform="rotate(0,130,220)"/><rect x="125" y="225" width="10" height="10" transform="rotate(0,130,230)"/><rect x="125" y="255" width="10" height="10" transform="rotate(0,130,260)"/><circle cx="130" cy="280" r="5" transform="rotate(0,130,280)"/><circle cx="140" cy="10" r="5" transform="rotate(0,140,10)"/><path d="M 135 25v 10h 5a 5 5, 0, 0, 0, 0 -10" transform="rotate(180,140,30)"/><path d="M 135 55v 10h 5a 5 5, 0, 0, 0, 0 -10" transform="rotate(0,140,60)"/><path d="M 135 195v 10h 10v -5a 5 5, 0, 0, 0, -5 -5" transform="rotate(0,140,200)"/><rect x="135" y="205" width="10" height="10" transform="rotate(0,140,210)"/><rect x="135" y="225" width="10" height="10" transform="rotate(0,140,230)"/><path d="M 135 245v 10h 5a 5 5, 0, 0, 0, 0 -10" transform="rotate(-90,140,250)"/><path d="M 135 255v 10h 10v -5a 5 5, 0, 0, 0, -5 -5" transform="rotate(90,140,260)"/><circle cx="140" cy="290" r="5" transform="rotate(0,140,290)"/><path d="M 145 15v 10h 10v -5a 5 5, 0, 0, 0, -5 -5" transform="rotate(-90,150,20)"/><rect x="145" y="25" width="10" height="10" transform="rotate(0,150,30)"/><path d="M 145 45v 10h 5a 5 5, 0, 0, 0, 0 -10" transform="rotate(180,150,50)"/><path d="M 145 65v 10h 5a 5 5, 0, 0, 0, 0 -10" transform="rotate(-90,150,70)"/><rect x="145" y="75" width="10" height="10" transform="rotate(0,150,80)"/><path d="M 145 85v 10h 5a 5 5, 0, 0, 0, 0 -10" transform="rotate(90,150,90)"/><path d="M 145 205v 10h 10v -5a 5 5, 0, 0, 0, -5 -5" transform="rotate(0,150,210)"/><rect x="145" y="215" width="10" height="10" transform="rotate(0,150,220)"/><rect x="145" y="225" width="10" height="10" transform="rotate(0,150,230)"/><path d="M 145 235v 10h 5a 5 5, 0, 0, 0, 0 -10" transform="rotate(90,150,240)"/><path d="M 145 275v 10h 5a 5 5, 0, 0, 0, 0 -10" transform="rotate(180,150,280)"/><rect x="155" y="15" width="10" height="10" transform="rotate(0,160,20)"/><rect x="155" y="25" width="10" height="10" transform="rotate(0,160,30)"/><rect x="155" y="35" width="10" height="10" transform="rotate(0,160,40)"/><rect x="155" y="45" width="10" height="10" transform="rotate(0,160,50)"/><path d="M 155 55v 10h 5a 5 5, 0, 0, 0, 0 -10" transform="rotate(90,160,60)"/><rect x="155" y="75" width="10" height="10" transform="rotate(0,160,80)"/><path d="M 155 105v 10h 5a 5 5, 0, 0, 0, 0 -10" transform="rotate(180,160,110)"/><circle cx="160" cy="190" r="5" transform="rotate(0,160,190)"/><path d="M 155 215v 10h 10v -5a 5 5, 0, 0, 0, -5 -5" transform="rotate(0,160,220)"/><path d="M 155 225v 10h 10v -5a 5 5, 0, 0, 0, -5 -5" transform="rotate(90,160,230)"/><path d="M 155 245v 10h 5a 5 5, 0, 0, 0, 0 -10" transform="rotate(-90,160,250)"/><rect x="155" y="255" width="10" height="10" transform="rotate(0,160,260)"/><rect x="155" y="265" width="10" height="10" transform="rotate(0,160,270)"/><rect x="155" y="275" width="10" height="10" transform="rotate(0,160,280)"/><path d="M 155 285v 10h 10v -5a 5 5, 0, 0, 0, -5 -5" transform="rotate(180,160,290)"/><path d="M 165 15v 10h 5a 5 5, 0, 0, 0, 0 -10" transform="rotate(0,170,20)"/><path d="M 165 35v 10h 5a 5 5, 0, 0, 0, 0 -10" transform="rotate(0,170,40)"/><path d="M 165 65v 10h 5a 5 5, 0, 0, 0, 0 -10" transform="rotate(-90,170,70)"/><rect x="165" y="75" width="10" height="10" transform="rotate(0,170,80)"/><path d="M 165 85v 10h 5a 5 5, 0, 0, 0, 0 -10" transform="rotate(90,170,90)"/><path d="M 165 105v 10h 5a 5 5, 0, 0, 0, 0 -10" transform="rotate(0,170,110)"/><path d="M 165 195v 10h 5a 5 5, 0, 0, 0, 0 -10" transform="rotate(180,170,200)"/><path d="M 165 235v 10h 5a 5 5, 0, 0, 0, 0 -10" transform="rotate(180,170,240)"/><path d="M 165 255v 10h 10v -5a 5 5, 0, 0, 0, -5 -5" transform="rotate(0,170,260)"/><path d="M 165 265v 10h 10v -5a 5 5, 0, 0, 0, -5 -5" transform="rotate(90,170,270)"/><rect x="165" y="285" width="10" height="10" transform="rotate(0,170,290)"/><path d="M 175 5v 10h 5a 5 5, 0, 0, 0, 0 -10" transform="rotate(180,180,10)"/><circle cx="180" cy="30" r="5" transform="rotate(0,180,30)"/><path d="M 175 45v 10h 10v -5a 5 5, 0, 0, 0, -5 -5" transform="rotate(-90,180,50)"/><path d="M 175 55v 10h 10v -5a 5 5, 0, 0, 0, -5 -5" transform="rotate(180,180,60)"/><path d="M 175 185v 10h 10v -5a 5 5, 0, 0, 0, -5 -5" transform="rotate(-90,180,190)"/><rect x="175" y="195" width="10" height="10" transform="rotate(0,180,200)"/><path d="M 175 205v 10h 5a 5 5, 0, 0, 0, 0 -10" transform="rotate(90,180,210)"/><path d="M 175 225v 10h 5a 5 5, 0, 0, 0, 0 -10" transform="rotate(-90,180,230)"/><rect x="175" y="235" width="10" height="10" transform="rotate(0,180,240)"/><path d="M 175 245v 10h 5a 5 5, 0, 0, 0, 0 -10" transform="rotate(90,180,250)"/><rect x="175" y="285" width="10" height="10" transform="rotate(0,180,290)"/><rect x="185" y="5" width="10" height="10" transform="rotate(0,190,10)"/><path d="M 185 15v 10h 5a 5 5, 0, 0, 0, 0 -10" transform="rotate(90,190,20)"/><path d="M 185 45v 10h 10v -5a 5 5, 0, 0, 0, -5 -5" transform="rotate(0,190,50)"/><rect x="185" y="55" width="10" height="10" transform="rotate(0,190,60)"/><path d="M 185 65v 10h 5a 5 5, 0, 0, 0, 0 -10" transform="rotate(90,190,70)"/><circle cx="190" cy="90" r="5" transform="rotate(0,190,90)"/><path d="M 185 145v 10h 5a 5 5, 0, 0, 0, 0 -10" transform="rotate(-90,190,150)"/><path d="M 185 155v 10h 5a 5 5, 0, 0, 0, 0 -10" transform="rotate(90,190,160)"/><rect x="185" y="185" width="10" height="10" transform="rotate(0,190,190)"/><rect x="185" y="195" width="10" height="10" transform="rotate(0,190,200)"/><path d="M 185 235v 10h 5a 5 5, 0, 0, 0, 0 -10" transform="rotate(0,190,240)"/><circle cx="190" cy="270" r="5" transform="rotate(0,190,270)"/><rect x="185" y="285" width="10" height="10" transform="rotate(0,190,290)"/><rect x="195" y="5" width="10" height="10" transform="rotate(0,200,10)"/><path d="M 195 25v 10h 10v -5a 5 5, 0, 0, 0, -5 -5" transform="rotate(-90,200,30)"/><path d="M 195 35v 10h 10v -5a 5 5, 0, 0, 0, -5 -5" transform="rotate(180,200,40)"/><rect x="195" y="55" width="10" height="10" transform="rotate(0,200,60)"/><path d="M 195 95v 10h 10v -5a 5 5, 0, 0, 0, -5 -5" transform="rotate(-90,200,100)"/><path d="M 195 105v 10h 10v -5a 5 5, 0, 0, 0, -5 -5" transform="rotate(180,200,110)"/><circle cx="200" cy="140" r="5" transform="rotate(0,200,140)"/><rect x="195" y="185" width="10" height="10" transform="rotate(0,200,190)"/><rect x="195" y="195" width="10" height="10" transform="rotate(0,200,200)"/><path d="M 195 215v 10h 10v -5a 5 5, 0, 0, 0, -5 -5" transform="rotate(-90,200,220)"/><path d="M 195 225v 10h 10v -5a 5 5, 0, 0, 0, -5 -5" transform="rotate(180,200,230)"/><circle cx="200" cy="260" r="5" transform="rotate(0,200,260)"/><rect x="195" y="285" width="10" height="10" transform="rotate(0,200,290)"/><path d="M 205 5v 10h 5a 5 5, 0, 0, 0, 0 -10" transform="rotate(0,210,10)"/><path d="M 205 25v 10h 10v -5a 5 5, 0, 0, 0, -5 -5" transform="rotate(0,210,30)"/><rect x="205" y="35" width="10" height="10" transform="rotate(0,210,40)"/><rect x="205" y="45" width="10" height="10" transform="rotate(0,210,50)"/><rect x="205" y="55" width="10" height="10" transform="rotate(0,210,60)"/><rect x="205" y="65" width="10" height="10" transform="rotate(0,210,70)"/><rect x="205" y="75" width="10" height="10" transform="rotate(0,210,80)"/><rect x="205" y="85" width="10" height="10" transform="rotate(0,210,90)"/><rect x="205" y="95" width="10" height="10" transform="rotate(0,210,100)"/><rect x="205" y="105" width="10" height="10" transform="rotate(0,210,110)"/><rect x="205" y="115" width="10" height="10" transform="rotate(0,210,120)"/><path d="M 205 125v 10h 10v -5a 5 5, 0, 0, 0, -5 -5" transform="rotate(180,210,130)"/><path d="M 205 145v 10h 10v -5a 5 5, 0, 0, 0, -5 -5" transform="rotate(-90,210,150)"/><path d="M 205 155v 10h 10v -5a 5 5, 0, 0, 0, -5 -5" transform="rotate(180,210,160)"/><path d="M 205 175v 10h 5a 5 5, 0, 0, 0, 0 -10" transform="rotate(-90,210,180)"/><rect x="205" y="185" width="10" height="10" transform="rotate(0,210,190)"/><rect x="205" y="195" width="10" height="10" transform="rotate(0,210,200)"/><rect x="205" y="205" width="10" height="10" transform="rotate(0,210,210)"/><rect x="205" y="215" width="10" height="10" transform="rotate(0,210,220)"/><rect x="205" y="225" width="10" height="10" transform="rotate(0,210,230)"/><rect x="205" y="235" width="10" height="10" transform="rotate(0,210,240)"/><path d="M 205 245v 10h 10v -5a 5 5, 0, 0, 0, -5 -5" transform="rotate(180,210,250)"/><path d="M 205 275v 10h 5a 5 5, 0, 0, 0, 0 -10" transform="rotate(-90,210,280)"/><path d="M 205 285v 10h 10v -5a 5 5, 0, 0, 0, -5 -5" transform="rotate(90,210,290)"/><rect x="215" y="85" width="10" height="10" transform="rotate(0,220,90)"/><path d="M 215 125v 10h 5a 5 5, 0, 0, 0, 0 -10" transform="rotate(0,220,130)"/><path d="M 215 145v 10h 10v -5a 5 5, 0, 0, 0, -5 -5" transform="rotate(0,220,150)"/><rect x="215" y="155" width="10" height="10" transform="rotate(0,220,160)"/><rect x="215" y="185" width="10" height="10" transform="rotate(0,220,190)"/><rect x="215" y="205" width="10" height="10" transform="rotate(0,220,210)"/><rect x="215" y="245" width="10" height="10" transform="rotate(0,220,250)"/><rect x="215" y="255" width="10" height="10" transform="rotate(0,220,260)"/><path d="M 215 265v 10h 5a 5 5, 0, 0, 0, 0 -10" transform="rotate(90,220,270)"/><path d="M 225 85v 10h 5a 5 5, 0, 0, 0, 0 -10" transform="rotate(0,230,90)"/><circle cx="230" cy="110" r="5" transform="rotate(0,230,110)"/><rect x="225" y="155" width="10" height="10" transform="rotate(0,230,160)"/><path d="M 225 165v 10h 5a 5 5, 0, 0, 0, 0 -10" transform="rotate(90,230,170)"/><path d="M 225 185v 10h 10v -5a 5 5, 0, 0, 0, -5 -5" transform="rotate(0,230,190)"/><rect x="225" y="195" width="10" height="10" transform="rotate(0,230,200)"/><rect x="225" y="205" width="10" height="10" transform="rotate(0,230,210)"/><circle cx="230" cy="230" r="5" transform="rotate(0,230,230)"/><rect x="225" y="245" width="10" height="10" transform="rotate(0,230,250)"/><path d="M 235 135v 10h 10v -5a 5 5, 0, 0, 0, -5 -5" transform="rotate(-90,240,140)"/><rect x="235" y="145" width="10" height="10" transform="rotate(0,240,150)"/><rect x="235" y="155" width="10" height="10" transform="rotate(0,240,160)"/><rect x="235" y="195" width="10" height="10" transform="rotate(0,240,200)"/><rect x="235" y="205" width="10" height="10" transform="rotate(0,240,210)"/><rect x="235" y="245" width="10" height="10" transform="rotate(0,240,250)"/><path d="M 235 255v 10h 5a 5 5, 0, 0, 0, 0 -10" transform="rotate(90,240,260)"/><path d="M 235 275v 10h 5a 5 5, 0, 0, 0, 0 -10" transform="rotate(-90,240,280)"/><path d="M 235 285v 10h 5a 5 5, 0, 0, 0, 0 -10" transform="rotate(90,240,290)"/><path d="M 245 105v 10h 5a 5 5, 0, 0, 0, 0 -10" transform="rotate(180,250,110)"/><path d="M 245 135v 10h 5a 5 5, 0, 0, 0, 0 -10" transform="rotate(0,250,140)"/><path d="M 245 155v 10h 10v -5a 5 5, 0, 0, 0, -5 -5" transform="rotate(0,250,160)"/><rect x="245" y="165" width="10" height="10" transform="rotate(0,250,170)"/><rect x="245" y="175" width="10" height="10" transform="rotate(0,250,180)"/><rect x="245" y="185" width="10" height="10" transform="rotate(0,250,190)"/><rect x="245" y="195" width="10" height="10" transform="rotate(0,250,200)"/><rect x="245" y="205" width="10" height="10" transform="rotate(0,250,210)"/><rect x="245" y="215" width="10" height="10" transform="rotate(0,250,220)"/><rect x="245" y="225" width="10" height="10" transform="rotate(0,250,230)"/><rect x="245" y="235" width="10" height="10" transform="rotate(0,250,240)"/><path d="M 245 245v 10h 10v -5a 5 5, 0, 0, 0, -5 -5" transform="rotate(90,250,250)"/><path d="M 255 105v 10h 10v -5a 5 5, 0, 0, 0, -5 -5" transform="rotate(0,260,110)"/><path d="M 255 115v 10h 10v -5a 5 5, 0, 0, 0, -5 -5" transform="rotate(180,260,120)"/><path d="M 255 165v 10h 10v -5a 5 5, 0, 0, 0, -5 -5" transform="rotate(0,260,170)"/><rect x="255" y="175" width="10" height="10" transform="rotate(0,260,180)"/><rect x="255" y="195" width="10" height="10" transform="rotate(0,260,200)"/><rect x="255" y="205" width="10" height="10" transform="rotate(0,260,210)"/><rect x="255" y="235" width="10" height="10" transform="rotate(0,260,240)"/><circle cx="260" cy="260" r="5" transform="rotate(0,260,260)"/><path d="M 255 275v 10h 5a 5 5, 0, 0, 0, 0 -10" transform="rotate(180,260,280)"/><rect x="265" y="115" width="10" height="10" transform="rotate(0,270,120)"/><rect x="265" y="125" width="10" height="10" transform="rotate(0,270,130)"/><rect x="265" y="135" width="10" height="10" transform="rotate(0,270,140)"/><path d="M 265 145v 10h 5a 5 5, 0, 0, 0, 0 -10" transform="rotate(90,270,150)"/><path d="M 265 175v 10h 5a 5 5, 0, 0, 0, 0 -10" transform="rotate(0,270,180)"/><path d="M 265 195v 10h 10v -5a 5 5, 0, 0, 0, -5 -5" transform="rotate(0,270,200)"/><rect x="265" y="205" width="10" height="10" transform="rotate(0,270,210)"/><rect x="265" y="215" width="10" height="10" transform="rotate(0,270,220)"/><rect x="265" y="225" width="10" height="10" transform="rotate(0,270,230)"/><rect x="265" y="235" width="10" height="10" transform="rotate(0,270,240)"/><path d="M 265 245v 10h 10v -5a 5 5, 0, 0, 0, -5 -5" transform="rotate(180,270,250)"/><path d="M 265 265v 10h 10v -5a 5 5, 0, 0, 0, -5 -5" transform="rotate(-90,270,270)"/><path d="M 265 275v 10h 10v -5a 5 5, 0, 0, 0, -5 -5" transform="rotate(90,270,280)"/><circle cx="280" cy="90" r="5" transform="rotate(0,280,90)"/><rect x="275" y="115" width="10" height="10" transform="rotate(0,280,120)"/><path d="M 275 125v 10h 10v -5a 5 5, 0, 0, 0, -5 -5" transform="rotate(90,280,130)"/><circle cx="280" cy="160" r="5" transform="rotate(0,280,160)"/><circle cx="280" cy="190" r="5" transform="rotate(0,280,190)"/><path d="M 275 205v 10h 5a 5 5, 0, 0, 0, 0 -10" transform="rotate(0,280,210)"/><rect x="275" y="245" width="10" height="10" transform="rotate(0,280,250)"/><rect x="275" y="255" width="10" height="10" transform="rotate(0,280,260)"/><path d="M 275 265v 10h 10v -5a 5 5, 0, 0, 0, -5 -5" transform="rotate(90,280,270)"/><circle cx="280" cy="290" r="5" transform="rotate(0,280,290)"/><path d="M 285 105v 10h 5a 5 5, 0, 0, 0, 0 -10" transform="rotate(-90,290,110)"/><path d="M 285 115v 10h 10v -5a 5 5, 0, 0, 0, -5 -5" transform="rotate(90,290,120)"/><circle cx="290" cy="150" r="5" transform="rotate(0,290,150)"/><circle cx="290" cy="180" r="5" transform="rotate(0,290,180)"/><circle cx="290" cy="200" r="5" transform="rotate(0,290,200)"/><circle cx="290" cy="230" r="5" transform="rotate(0,290,230)"/><path d="M 285 245v 10h 5a 5 5, 0, 0, 0, 0 -10" transform="rotate(0,290,250)"/></g><g class="corners-square-color-0-0"><path clip-rule="evenodd" d="M 5 5v 70h 70v -70zM 15 15h 50v 50h -50z" transform="rotate(0,40,40)"/></g><g class="corners-dot-color-0-0"><rect x="25" y="25" width="30" height="30" transform="rotate(0,40,40)"/></g><g class="corners-square-color-1-0"><path clip-rule="evenodd" d="M 225 5v 70h 70v -70zM 235 15h 50v 50h -50z" transform="rotate(90,260,40)"/></g><g class="corners-dot-color-1-0"><rect x="245" y="25" width="30" height="30" transform="rotate(90,260,40)"/></g><g class="corners-square-color-0-1"><path clip-rule="evenodd" d="M 5 225v 70h 70v -70zM 15 235h 50v 50h -50z" transform="rotate(-90,40,260)"/></g><g class="corners-dot-color-0-1"><rect x="25" y="245" width="30" height="30" transform="rotate(-90,40,260)"/></g><svg id="whatsAppLogotype" xmlns="http://www.w3.org/2000/svg" version="1.1" x="117" y="117" viewBox="0 0 50 50" width="66px" height="66px"><rect width="50" height="50" fill="url(#asnap)" rx="15"/><path fill="#fff" d="M35.652 14.217A14.235 14.235 0 0 0 25.49 10c-7.917 0-14.366 6.449-14.373 14.366 0 2.535.662 5.002 1.915 7.186L11 39l7.62-1.998a14.38 14.38 0 0 0 6.87 1.75h.007c7.916 0 14.365-6.45 14.372-14.373a14.316 14.316 0 0 0-4.217-10.162ZM25.49 36.32c-2.15 0-4.252-.579-6.084-1.668l-.434-.261-4.52 1.185 1.206-4.41-.283-.455a11.892 11.892 0 0 1-1.826-6.352c0-6.573 5.36-11.934 11.948-11.934a11.89 11.89 0 0 1 8.447 3.5 11.883 11.883 0 0 1 3.493 8.447C37.43 30.966 32.07 36.32 25.49 36.32Zm6.552-8.943c-.358-.18-2.122-1.048-2.453-1.172-.33-.117-.572-.179-.806.18-.241.358-.93 1.17-1.137 1.405-.207.241-.42.269-.778.09-.359-.18-1.516-.558-2.887-1.785-1.068-.95-1.785-2.129-1.998-2.487-.207-.358-.021-.552.158-.73.159-.16.358-.42.538-.628.179-.206.24-.358.358-.599.117-.241.062-.448-.028-.627-.09-.18-.806-1.95-1.109-2.666-.29-.703-.586-.607-.806-.614-.207-.013-.448-.013-.69-.013-.24 0-.626.09-.957.447-.33.359-1.254 1.227-1.254 2.998 0 1.77 1.289 3.472 1.468 3.713.179.241 2.528 3.866 6.132 5.423.854.372 1.523.592 2.046.758.861.275 1.64.234 2.26.144.689-.103 2.122-.868 2.425-1.708.297-.841.297-1.558.207-1.71-.09-.15-.33-.24-.689-.42Z"/><defs><linearGradient id="asnap" x1="50" x2="50" y1="50" y2="0" gradientUnits="userSpaceOnUse"><stop stop-color="#20B038"/><stop offset="1" stop-color="#60D66A"/></linearGradient></defs></svg></svg></g></svg></svg>