<svg width="25" height="24" viewBox="0 0 25 24" fill="none" xmlns="http://www.w3.org/2000/svg">
<path d="M22.5837 11.41C22.2437 5.60995 16.9737 1.13996 10.9037 2.13996C6.72374 2.82996 3.37375 6.21994 2.72375 10.3999C2.34375 12.8199 2.84377 15.1099 3.93377 16.9999L3.04375 20.3099C2.84375 21.0599 3.53374 21.7399 4.27374 21.5299L7.53374 20.63C9.01374 21.5 10.7437 21.9999 12.5937 21.9999C18.2337 21.9999 22.9137 17.03 22.5837 11.41ZM17.4838 15.7199C17.3938 15.8999 17.2837 16.07 17.1437 16.23C16.8937 16.5 16.6237 16.7 16.3237 16.82C16.0237 16.95 15.6937 17.01 15.3437 17.01C14.8337 17.01 14.2837 16.89 13.7137 16.64C13.1337 16.39 12.5638 16.0599 11.9938 15.6499C11.4138 15.2299 10.8738 14.7599 10.3538 14.2499C9.83375 13.7299 9.37373 13.1799 8.95373 12.6099C8.54373 12.0399 8.21375 11.4699 7.97375 10.8999C7.73375 10.3299 7.61376 9.77996 7.61376 9.25996C7.61376 8.91996 7.67375 8.58996 7.79375 8.28996C7.91375 7.97996 8.10377 7.69996 8.37377 7.44996C8.69377 7.12996 9.04375 6.97996 9.41375 6.97996C9.55375 6.97996 9.69372 7.00995 9.82372 7.06995C9.95372 7.12995 10.0737 7.21995 10.1637 7.34995L11.3237 8.98994C11.4137 9.11994 11.4837 9.22994 11.5237 9.33994C11.5737 9.44994 11.5937 9.54994 11.5937 9.64994C11.5937 9.76994 11.5538 9.88996 11.4838 10.01C11.4138 10.13 11.3237 10.2499 11.2037 10.3699L10.8237 10.7699C10.7637 10.8299 10.7438 10.8899 10.7438 10.9699C10.7438 11.0099 10.7537 11.0499 10.7637 11.0899C10.7837 11.1299 10.7938 11.16 10.8038 11.1899C10.8938 11.36 11.0537 11.5699 11.2737 11.8299C11.5037 12.0899 11.7438 12.3599 12.0038 12.6199C12.2738 12.8899 12.5338 13.1299 12.8038 13.3599C13.0638 13.5799 13.2837 13.73 13.4537 13.82C13.4837 13.83 13.5138 13.8499 13.5438 13.8599C13.5838 13.8799 13.6238 13.88 13.6738 13.88C13.7638 13.88 13.8238 13.85 13.8838 13.79L14.2637 13.41C14.3937 13.28 14.5138 13.19 14.6238 13.13C14.7438 13.06 14.8538 13.0199 14.9838 13.0199C15.0838 13.0199 15.1838 13.0399 15.2938 13.0899C15.4038 13.1399 15.5237 13.2 15.6437 13.29L17.3038 14.4699C17.4338 14.5599 17.5237 14.67 17.5837 14.79C17.6337 14.92 17.6637 15.0399 17.6637 15.1799C17.6037 15.3499 17.5638 15.5399 17.4838 15.7199Z" fill="#F8ECE8"/>
</svg>
